HIERARCHY
ROOT Spine
{
    OFFSET 0.0 0.0 -0.0
    CHANNELS 6 Xposition Yposition Zposition Zrotation Xrotation Yrotation
    JOINT ShoulderCenter
    {
        OFFSET 0.0 31.77381706237793 0.0
        CHANNELS 3 Zrotation Xrotation Yrotation
        JOINT LeftShoulder
        {
            OFFSET 18.010040283203125 0.0 0.0
            CHANNELS 3 Zrotation Xrotation Yrotation
            JOINT LeftElbow
            {
                OFFSET 32.60741424560547 0.0 0.0
                CHANNELS 3 Zrotation Xrotation Yrotation
                JOINT LeftHand
                {
                    OFFSET 30.722253799438477 0.0 0.0
                    CHANNELS 3 Zrotation Xrotation Yrotation
                    End Site
                    {
                        OFFSET 12.288901329040527 0.0 0.0
                    }
                }
            }
        }
        JOINT RightShoulder
        {
            OFFSET -18.010040283203125 0.0 0.0
            CHANNELS 3 Zrotation Xrotation Yrotation
            JOINT RightElbow
            {
                OFFSET -32.60741424560547 0.0 0.0
                CHANNELS 3 Zrotation Xrotation Yrotation
                JOINT RightHand
                {
                    OFFSET -30.722253799438477 0.0 0.0
                    CHANNELS 3 Zrotation Xrotation Yrotation
                    End Site
                    {
                        OFFSET -12.288901329040527 0.0 0.0
                    }
                }
            }
        }
        End Site
        {
            OFFSET 0.0 12.709527015686035 0.0
        }
    }
    JOINT LeftHip
    {
        OFFSET 17.23957158400629 -17.23957158400629 0.0
        CHANNELS 3 Zrotation Xrotation Yrotation
        JOINT LeftKnee
        {
            OFFSET 0.0 -46.875877380371094 0.0
            CHANNELS 3 Zrotation Xrotation Yrotation
            JOINT LeftFoot
            {
                OFFSET 0.0 -44.41277313232422 0.0
                CHANNELS 3 Zrotation Xrotation Yrotation
                End Site
                {
                    OFFSET 0.0 0.0 17.76511001586914
                }
            }
        }
    }
    JOINT RightHip
    {
        OFFSET -17.23957158400629 -17.23957158400629 0.0
        CHANNELS 3 Zrotation Xrotation Yrotation
        JOINT RightKnee
        {
            OFFSET 0.0 -46.875877380371094 0.0
            CHANNELS 3 Zrotation Xrotation Yrotation
            JOINT RightFoot
            {
                OFFSET 0.0 -44.41277313232422 0.0
                CHANNELS 3 Zrotation Xrotation Yrotation
                End Site
                {
                    OFFSET 0.0 0.0 17.76511001586914
                }
            }
        }
    }
}
MOTION
Frames: 14
Frame Time: 0.03333333333333333
160.0 15.09999942779541 -6.700000286102295 4.523471683223698 -4.86852426643962 -164.08504113767603 -4.1464438163376717e-07 -9.578705933045887e-07 0.03320276426623987 97.8924989011082 2.780373301072841 176.97318757913382 2.227898379626973e-06 5.440712010425378e-06 31.60804337572137 0.0 -3.1805546814635164e-15 0.0 -95.71882457371805 8.510423580690832 -171.5196673364749 5.4796895115747965e-06 3.359373539718804e-06 -32.61265022651503 -6.361109362927033e-15 7.951386703658791e-16 4.4139062980501586e-32 -1.0579894728268933 -22.990083096546275 39.791077550569 9.726249946884712 10.203559637058305 -29.8924900560491 0.0 0.0 -2.2735996355774357e-15 1.427104087042594 -15.876769918610375 -25.369176986761314 -21.117993396451414 37.653974418697814 84.86393460988414 -3.1805546814635176e-15 3.1805546814635176e-15 5.963540027744095e-15
159.39999389648438 14.90000057220459 -7.90000057220459 4.883658635668183 -5.403645680383141 -162.29694113968324 -1.0568067229536553e-07 -1.5311536611450288e-07 -0.5151826371022379 98.05963992623626 1.8999974115713232 -179.9853616416871 -8.728493539918119e-07 1.1289910269058644e-06 30.51649768923746 0.0 0.0 -7.951386703658792e-16 -95.20144613645252 7.713551066262949 -173.6635473546402 -3.1970477273430747e-06 -1.4802856738647678e-07 -32.823518311389854 6.3611093629270335e-15 1.7655625192200634e-31 3.1805546814635168e-15 -1.2813952544651512 -23.414076845261928 39.85797258382953 9.978771213199177 11.014846111833155 -32.144651773656086 -2.981770013872047e-16 1.034509288605506e-33 -3.975693351829396e-16 2.2006205567635804 -19.508167768787526 -30.14677660070037 -24.946356188075253 33.11703031986277 86.80670117871227 0.0 0.0 -1.5902773407317584e-15
158.8000030517578 14.699999809265137 -9.09999942779541 5.260038764208346 -5.955596136382394 -160.4055354619144 3.1377929625708893e-07 -4.709618212748181e-07 -0.8032544635798746 98.26924656483021 0.6752723064097456 -176.46382737987224 -1.6832489480222784e-06 1.920882722565939e-06 28.778774950179347 0.0 0.0 0.0 -95.12751702345729 5.764337622679263 -175.1223686037256 -2.8843013163649147e-06 1.6717486307373759e-06 -34.683329217761376 0.0 0.0 0.0 -1.6769285940592293 -23.74840535554914 39.212846405007205 10.328980280475783 11.73097792070877 -34.602034936226936 -4.969616689786745e-17 1.987846675914698e-16 1.3169484227934873e-15 2.669472068714186 -22.71108959245241 -33.43133647245146 -25.610760764196016 28.1899196663848 83.7326737919908 1.5902773407317582e-15 -3.1805546814635168e-15 -6.3611093629270335e-15
158.1999969482422 14.699999809265137 -10.40000057220459 5.6383022247480445 -6.329696014989788 -158.56081140617022 6.837260601237892e-08 -1.9926425798238517e-07 -1.1961568058485461 98.55221562879028 -1.8058424396802226 -173.90953485270228 1.5995944462360538e-06 -3.7080683077473645e-08 28.445208278466104 0.0 0.0 0.0 -95.35367285173047 3.7714654643382364 -176.3333348392227 2.539024943961289e-06 1.583305317130631e-06 -37.22508798637586 0.0 0.0 0.0 -1.9813544744531906 -23.877980217802858 39.182442521295144 10.459840826234755 12.138168501653626 -35.40217332531264 2.2363275104040355e-16 -3.103527865816518e-33 -1.5902773407317584e-15 3.0941453378074835 -25.325592922961594 -36.57094750654202 -25.232110591648457 22.53945063885974 76.67464903598592 1.5902773407317584e-15 1.5902773407317584e-15 -4.472655020808071e-16
157.6999969482422 14.59999942779541 -11.59999942779541 6.3803441466386515 -6.879697425980963 -157.3800189627606 5.325150102231837e-07 6.901037010775656e-07 -0.5074590113649178 99.4642872731137 -4.99148443017901 -171.48498237106156 1.6080656106693327e-06 5.023692448428154e-07 29.244266587445484 0.0 0.0 -3.1805546814635168e-15 -95.3921802588732 3.542035057917156 -177.75662126788959 -1.1673080709951516e-06 1.5586225214728969e-06 -40.16246483028914 0.0 0.0 3.1805546814635168e-15 -1.7150912057365633 -23.99680513159377 38.51689456852856 10.15230397900924 12.431154120087513 -35.5386758776457 7.959151729736584e-18 7.765026077791793e-19 3.76613471055499e-15 3.817729635537985 -28.012689130001284 -38.97941147679068 -23.717854696359154 17.468433614655222 63.67764505825684 0.0 0.0 5.963540027744093e-16
157.09999084472656 14.699999809265137 -12.800000190734863 6.581928075799171 -7.616867887716307 -155.76094203422392 -5.73559196799025e-07 3.1317109157187734e-07 -1.0321689269860694 99.85813409081035 -8.034647728074104 -169.94453137023416 2.4341024137758173e-06 -1.558643957779671e-06 31.02670746432868 0.0 0.0 1.5902773407317584e-15 -96.06151071572644 3.304109517107846 -179.26198755260162 3.81894493269165e-06 2.7324954835315546e-06 -43.66707591808564 -6.3611093629270335e-15 -3.975693351829396e-15 -2.2069531490250793e-31 -2.2557410208504813 -23.79728724042462 36.94546963069325 9.38209968077564 12.441648711960163 -34.65106025785208 9.93923337957349e-17 8.21680554751769e-34 9.473331814905982e-16 3.2525070877203475 -30.27705051267429 -41.73173907072826 -20.30262678779528 13.399428041852563 45.836861668869325 1.1430118386509513e-15 3.5814496048754156e-32 3.590548058370923e-15
156.5 14.800000190734863 -14.0 6.944135882661233 -8.326375346117223 -154.62267628589612 -9.743746864925615e-08 -3.5271727582484716e-07 -1.1064544977316408 100.90858215545231 -11.751062516292043 -168.39761739020716 -3.706286228136786e-06 -2.198420211656296e-06 33.191761686747896 0.0 3.1805546814635176e-15 0.0 -96.95420526981674 3.2311661479659497 179.57444863137312 -1.808085948725096e-06 4.6029205109723316e-07 -47.56263023833474 0.0 0.0 0.0 -2.6134340454432685 -23.459656053369986 34.852780413121785 8.331050994877033 11.982296855489436 -32.1623900461228 9.193790876105475e-16 -1.9878466759146977e-16 -1.143011838650951e-15 2.768564542428384 -32.419140226471555 -44.35814328345008 -15.89887083754229 10.558945535216237 29.641640041498388 9.93923337957349e-17 -7.951386703658792e-16 -1.2424041724466862e-16
155.89999389648438 14.800000190734863 -15.199999809265137 7.147679338071047 -9.06359054297472 -153.89701950927497 -1.483736987883284e-07 -7.83832141026501e-07 -1.0584444699072078 101.88839482818929 -15.793191653600168 -166.71633426524772 1.941342568574328e-06 1.2904204958469216e-06 35.442126959064495 0.0 0.0 3.1805546814635168e-15 -97.59824375532186 4.494668405194867 178.43334619489448 4.261109164025167e-06 -1.6480138853058234e-06 -51.4497305282936 0.0 0.0 0.0 -2.9901537367162727 -23.17321345721272 33.198097181715085 7.4274120485908455 11.712847549566947 -30.19920070498545 -7.454425034680117e-17 -1.866965981780249e-33 2.8699536383518453e-15 2.6658526035644323 -34.10283670713117 -45.779960483592305 -11.64089763098396 7.887339302424203 17.815672793468543 -4.9696166897867443e-17 -4.418216753419348e-34 1.0187714214062825e-15
155.3000030517578 15.000000953674316 -16.30000114440918 7.170495949677839 -10.161362377221478 -153.05063119222547 -2.058339817302947e-07 1.4064146085622426e-07 -1.722739607064997 103.3056842659261 -20.215737799138385 -164.42962617320268 -8.855664390743718e-07 -5.656976137437635e-07 37.51176179067203 0.0 0.0 0.0 -98.95180249411175 4.7769751894240535 176.99995846194224 -6.566488480476083e-06 4.365290492650387e-06 -54.96936623802524 0.0 0.0 0.0 -3.675190195221046 -22.979988715730947 30.991510115586703 6.3246404581433815 11.385572784218157 -28.388506647719115 1.0436195048552165e-15 -1.987846675914698e-16 -1.167859922099885e-15 2.096591540088391 -35.746299026846565 -46.86381752339849 -8.768418744667864 5.563675280102573 11.00073847668749 -3.975693351829396e-16 -1.5902773407317584e-15 -1.1927080055488188e-15
154.70001220703125 15.000000953674316 -17.5 6.988522963752579 -11.051445379853128 -152.4707163169727 -3.908895814024909e-07 8.019015905772725e-08 -2.195532185041745 104.13453977845565 -24.12371900645519 -162.33167471143886 6.744884217106425e-07 -1.253037346609276e-06 40.1026612710614 -6.3611093629270335e-15 6.3611093629270335e-15 -3.1805546814635164e-15 -100.42824702378257 5.292449669462785 175.6616005933616 1.441175044215882e-06 1.2993584698668664e-06 -57.84828632290343 0.0 1.5902773407317584e-15 0.0 -4.482865564230596 -22.49966338720479 29.10229889179892 5.523396897646315 10.701785686895237 -25.89995040300054 1.9878466759146977e-16 -1.9878466759146977e-16 7.205944200190779e-16 1.8179716279985185 -37.19061175145073 -48.1964008186746 -7.5252878703137505 3.726217246290568 6.791608062136737 1.1927080055488188e-15 1.5902773407317584e-15 -5.963540027744094e-16
154.20001220703125 14.90000057220459 -18.700000762939453 6.645290065520645 -11.97810536081119 -152.23248722744836 -6.670965821949186e-08 1.9555816761287346e-08 -2.817407712219252 104.92961567385235 -27.63758363957386 -159.870189228927 5.661081068178573e-07 -2.4342499262771875e-07 42.06755986401516 0.0 -3.1805546814635168e-15 0.0 -101.67117838841212 5.922006417248022 174.12421255753094 4.384427212626898e-06 -1.0850594784802532e-06 -59.782583958898556 0.0 0.0 6.3611093629270335e-15 -5.4316465132578085 -21.927553863949655 25.434632125876895 4.502548517789798 10.422706021891202 -24.111499182683694 1.0436195048552165e-15 1.9878466759146977e-16 -1.6151254241806921e-15 1.4676228547748467 -38.29290305418558 -48.566807853296055 -6.887898469952994 2.9367772706288355 5.213764333428187 3.975693351829396e-16 -1.1724438604195735e-32 -3.3793393490549868e-15
153.60000610351562 14.699999809265137 -20.0 5.931549500645489 -12.737960116216142 -152.21998245843002 -5.441628475070599e-07 -1.6302577945466927e-06 -4.115374756256436 106.05032840839498 -30.885051748912154 -157.50956172332005 -9.514591079740975e-07 5.650063592570534e-07 44.39982620639935 6.3611093629270335e-15 0.0 0.0 -102.92530541677648 6.576218085264034 172.44247804643098 -1.3861096202860863e-06 -1.3346762982686546e-06 -61.13958224462419 -6.3611093629270335e-15 -1.5902773407317584e-15 -8.827812596100317e-32 -6.502986837634274 -21.501461779965847 23.561903246023544 3.935251400132337 10.847956278948294 -23.929812354166415 6.957463365701443e-16 -3.975693351829396e-16 -1.2424041724466862e-16 0.9120747684616801 -39.16823069535599 -49.566186353684124 -7.653690032784044 3.151705293581603 5.66673877166049 3.975693351829396e-16 1.3103784322336408e-32 3.776908684237926e-15
153.0 14.399999618530273 -21.299999237060547 4.825228558481176 -13.813789250642987 -152.90026344024673 -3.1353098186474736e-07 -1.5204044248878524e-06 -4.619359033075837 107.49868872357855 -34.033820359888885 -154.187328222901 -5.193046089931082e-07 1.8205667024728626e-06 46.426132112662614 6.3611093629270335e-15 -1.5902773407317584e-15 8.827812596100317e-32 -103.59048788172954 8.653571949371218 170.43223692172 2.9066991325545722e-06 -3.258210445711789e-07 -61.55703952990807 -6.3611093629270335e-15 0.0 0.0 -7.6484676510327585 -21.206237343774582 21.805379531196607 3.146503236570046 11.397187346673444 -24.26848477952911 2.981770013872047e-16 -2.7802437131272972e-33 -1.0684675883041502e-15 0.2979756320522943 -39.95142382913926 -49.70707493650345 -9.003066010410551 4.187437994111487 7.848528564244979 1.987846675914698e-15 5.517382872562698e-32 3.1805546814635168e-15
152.40000915527344 14.200000762939453 -22.799999237060547 3.7395313352759385 -14.621500765471346 -153.53088804209065 -1.828411976996572e-08 -6.132769180536796e-07 -5.274150797304575 109.34122535755229 -37.053653000513876 -151.31981465231314 -9.942995907690313e-07 3.616632847840101e-06 48.55109128927068 0.0 0.0 0.0 -103.53758494045466 11.661703807644336 168.78225205781152 2.260003539894395e-06 -4.5184240742124044e-07 -62.36945995767712 1.7655625192200634e-31 -3.1805546814635168e-15 6.3611093629270335e-15 -8.968146410428389 -20.406236361700557 19.123196185185414 2.2255970626491846 11.482584889736422 -22.893300755901613 -9.93923337957349e-17 -8.620910738379216e-34 9.93923337957349e-16 -0.1529154953342503 -40.13797558557908 -50.00815226580195 -10.681010517128342 5.004418232801422 10.066893784540827 3.9756933518293955e-16 1.5902773407317582e-15 -9.939233379573488e-16
